<svg width="150" height="69" viewBox="0 0 150 69" fill="none" xmlns="http://www.w3.org/2000/svg">
<g clip-path="url(#clip0_97_16)">
<path d="M19.4492 44L22.8092 38.4C23.0759 38.9333 23.4759 39.3333 24.0092 39.6C24.5426 39.8667 25.0492 40 25.5292 40H30.4092C30.1959 39.36 30.0892 38.6933 30.0892 38C30.0892 36.9333 30.3292 35.96 30.8092 35.08C31.3159 34.2 31.9959 33.48 32.8492 32.92C33.7026 32.36 34.6359 32.0533 35.6492 32C35.7826 31.4667 35.9559 31.0667 36.1692 30.8C36.3826 30.5333 36.5959 30.28 36.8092 30.04C38.5692 31.1333 39.8626 32.36 40.6892 33.72C41.5426 35.0533 41.9692 36.48 41.9692 38C41.9692 39.0933 41.7026 40.1067 41.1692 41.04C40.6359 41.9467 39.9159 42.6667 39.0092 43.2C38.1292 43.7333 37.1426 44 36.0492 44H19.4492ZM36.0492 40C36.6092 40 37.0759 39.8133 37.4492 39.44C37.8492 39.04 38.0492 38.56 38.0492 38C38.0492 37.44 37.8492 36.9733 37.4492 36.6C37.0759 36.2 36.6092 36 36.0492 36C35.4892 36 35.0092 36.2 34.6092 36.6C34.2359 36.9733 34.0492 37.44 34.0492 38C34.0492 38.56 34.2359 39.04 34.6092 39.44C35.0092 39.8133 35.4892 40 36.0492 40Z" fill="#5D4848"/>
<path d="M39.5805 50C41.1005 50.4 42.3405 50.5733 43.3005 50.52C44.2871 50.4667 45.0471 50.2533 45.5805 49.88C46.1138 49.5067 46.4738 49.04 46.6605 48.48C46.8738 47.92 46.9805 47.36 46.9805 46.8V32.88L50.9805 32V40H55.7805V44H50.9805V46.4C50.9805 47.8133 50.6738 48.96 50.0605 49.84C49.4738 50.7467 48.7005 51.4 47.7405 51.8C46.7805 52.2267 45.7671 52.4267 44.7005 52.4C43.6605 52.3733 42.6871 52.1467 41.7805 51.72C40.8471 51.32 40.1138 50.7467 39.5805 50ZM64.5617 58.32C63.9217 58.32 63.3751 58.0933 62.9217 57.64C62.4684 57.1867 62.2417 56.64 62.2417 56C62.2417 55.36 62.4684 54.8133 62.9217 54.36C63.3751 53.9067 63.9217 53.68 64.5617 53.68C65.2017 53.68 65.7484 53.9067 66.2017 54.36C66.6551 54.8133 66.8817 55.36 66.8817 56C66.8817 56.64 66.6551 57.1867 66.2017 57.64C65.7484 58.0933 65.2017 58.32 64.5617 58.32ZM68.0017 52.32C67.3617 52.32 66.8151 52.0933 66.3617 51.64C65.9084 51.1867 65.6817 50.64 65.6817 50C65.6817 49.36 65.9084 48.8133 66.3617 48.36C66.8151 47.9067 67.3617 47.68 68.0017 47.68C68.6417 47.68 69.1884 47.9067 69.6417 48.36C70.0951 48.8133 70.3217 49.36 70.3217 50C70.3217 50.64 70.0951 51.1867 69.6417 51.64C69.1884 52.0933 68.6417 52.32 68.0017 52.32ZM61.0817 52.32C60.4417 52.32 59.8951 52.0933 59.4417 51.64C58.9884 51.1867 58.7617 50.64 58.7617 50C58.7617 49.36 58.9884 48.8133 59.4417 48.36C59.8951 47.9067 60.4417 47.68 61.0817 47.68C61.7217 47.68 62.2684 47.9067 62.7217 48.36C63.1751 48.8133 63.4017 49.36 63.4017 50C63.4017 50.64 63.1751 51.1867 62.7217 51.64C62.2684 52.0933 61.7217 52.32 61.0817 52.32ZM54.1727 44V40H61.8927C61.3327 39.68 60.746 39.1733 60.1327 38.48C59.546 37.7867 59.0927 37.1867 58.7727 36.68L61.0127 32.4C61.946 33.8667 62.986 35.1733 64.1327 36.32C65.306 37.4667 66.5193 38.3733 67.7727 39.04C69.0527 39.68 70.3327 40 71.6127 40H81.3727L78.9727 44H54.1727Z" fill="#5D4848"/>
<path d="M70.3125 39L72.7125 35H104.713C104.739 33.88 104.513 32.9333 104.033 32.16C103.579 31.3867 102.606 31 101.113 31H75.9125L79.9125 27L92.7525 14.36V20.96C92.5925 20.6667 92.4058 20.5333 92.1925 20.56C92.0058 20.56 91.8458 20.6267 91.7125 20.76L85.3125 27H101.113C102.766 27 104.086 27.2267 105.073 27.68C106.059 28.1333 106.806 28.7467 107.313 29.52C107.846 30.2667 108.206 31.12 108.393 32.08C108.579 33.0133 108.686 33.9867 108.713 35H113.513V39H107.273C107.219 39 107.179 39 107.153 39C107.126 39 107.113 39 107.113 39H70.3125ZM119.49 47.32C118.85 47.32 118.303 47.0933 117.85 46.64C117.397 46.1867 117.17 45.64 117.17 45C117.17 44.36 117.397 43.8133 117.85 43.36C118.303 42.9067 118.85 42.68 119.49 42.68C120.13 42.68 120.677 42.9067 121.13 43.36C121.583 43.8133 121.81 44.36 121.81 45C121.81 45.64 121.583 46.1867 121.13 46.64C120.677 47.0933 120.13 47.32 119.49 47.32ZM112.57 47.32C111.93 47.32 111.383 47.0933 110.93 46.64C110.477 46.1867 110.25 45.64 110.25 45C110.25 44.36 110.477 43.8133 110.93 43.36C111.383 42.9067 111.93 42.68 112.57 42.68C113.21 42.68 113.757 42.9067 114.21 43.36C114.663 43.8133 114.89 44.36 114.89 45C114.89 45.64 114.663 46.1867 114.21 46.64C113.757 47.0933 113.21 47.32 112.57 47.32ZM111.911 39V35H116.711V27.88L120.711 27V35H125.511V39H119.271C119.218 39 119.178 39 119.151 39C119.124 39 119.111 39 119.111 39H111.911ZM128.039 22.32C127.399 22.32 126.852 22.0933 126.399 21.64C125.945 21.1867 125.719 20.64 125.719 20C125.719 19.36 125.945 18.8133 126.399 18.36C126.852 17.9067 127.399 17.68 128.039 17.68C128.679 17.68 129.225 17.9067 129.679 18.36C130.132 18.8133 130.359 19.36 130.359 20C130.359 20.64 130.132 21.1867 129.679 21.64C129.225 22.0933 128.679 22.32 128.039 22.32ZM123.903 39V35H128.703V27.88L132.703 27V38.08C132.703 38.4 132.57 38.6267 132.303 38.76C132.036 38.8933 131.77 38.9733 131.503 39C131.236 39 131.103 39 131.103 39H123.903Z" fill="#571212"/>
</g>
<defs>
<clipPath id="clip0_97_16">
<rect width="150" height="69" fill="white"/>
</clipPath>
</defs>
</svg>
